<svg width="256" height="52" viewBox="0 0 256 52" fill="none" xmlns="http://www.w3.org/2000/svg">
<rect x="0.5" y="0.5" width="255" height="51" rx="4.5" stroke="#23A6F0"/>
<path d="M41.6036 31V21.214H43.7876V29.054H47.9596V31H41.6036ZM56.9909 26.058C56.9909 25.1807 56.7109 24.434 56.1509 23.818C55.5909 23.202 54.9002 22.894 54.0789 22.894C53.2669 22.894 52.5809 23.202 52.0209 23.818C51.4609 24.434 51.1809 25.1807 51.1809 26.058C51.1809 26.926 51.4609 27.668 52.0209 28.284C52.5809 28.8907 53.2669 29.194 54.0789 29.194C54.9002 29.194 55.5909 28.8907 56.1509 28.284C56.7109 27.668 56.9909 26.926 56.9909 26.058ZM57.7329 29.656C56.7435 30.6173 55.5255 31.098 54.0789 31.098C52.6322 31.098 51.4142 30.6173 50.4249 29.656C49.4355 28.6853 48.9409 27.4813 48.9409 26.044C48.9409 24.6067 49.4355 23.4073 50.4249 22.446C51.4142 21.4753 52.6322 20.99 54.0789 20.99C55.5255 20.99 56.7435 21.4753 57.7329 22.446C58.7222 23.4073 59.2169 24.6067 59.2169 26.044C59.2169 27.4813 58.7222 28.6853 57.7329 29.656ZM67.9385 31L67.0285 28.886H62.9265L62.0165 31H59.6925L63.9205 21.214H66.0345L70.2625 31H67.9385ZM64.9845 24.126L63.7525 26.968H66.2025L64.9845 24.126ZM75.0561 21.214C76.8015 21.214 78.1408 21.6433 79.0741 22.502C80.0075 23.3513 80.4741 24.5367 80.4741 26.058C80.4741 27.5793 80.0168 28.7833 79.1021 29.67C78.1968 30.5567 76.8108 31 74.9441 31H71.5981V21.214H75.0561ZM75.1681 29.068C76.1668 29.068 76.9321 28.816 77.4641 28.312C78.0055 27.808 78.2761 27.0753 78.2761 26.114C78.2761 25.1527 78.0055 24.4153 77.4641 23.902C76.9321 23.3793 76.1108 23.118 75.0001 23.118H73.7821V29.068H75.1681ZM95.2133 24.84L92.5673 30.188H91.2653L88.6333 24.84V31H86.4493V21.214H89.4033L91.9233 26.59L94.4573 21.214H97.3973V31H95.2133V24.84ZM107.497 26.058C107.497 25.1807 107.217 24.434 106.657 23.818C106.097 23.202 105.406 22.894 104.585 22.894C103.773 22.894 103.087 23.202 102.527 23.818C101.967 24.434 101.687 25.1807 101.687 26.058C101.687 26.926 101.967 27.668 102.527 28.284C103.087 28.8907 103.773 29.194 104.585 29.194C105.406 29.194 106.097 28.8907 106.657 28.284C107.217 27.668 107.497 26.926 107.497 26.058ZM108.239 29.656C107.249 30.6173 106.031 31.098 104.585 31.098C103.138 31.098 101.92 30.6173 100.931 29.656C99.9414 28.6853 99.4467 27.4813 99.4467 26.044C99.4467 24.6067 99.9414 23.4073 100.931 22.446C101.92 21.4753 103.138 20.99 104.585 20.99C106.031 20.99 107.249 21.4753 108.239 22.446C109.228 23.4073 109.723 24.6067 109.723 26.044C109.723 27.4813 109.228 28.6853 108.239 29.656ZM119.711 24.462C119.711 26.03 119.09 27.0427 117.849 27.5L120.327 31H117.639L115.469 27.878H113.957V31H111.773V21.214H115.483C117.004 21.214 118.087 21.4707 118.731 21.984C119.384 22.4973 119.711 23.3233 119.711 24.462ZM115.553 25.988C116.3 25.988 116.808 25.8667 117.079 25.624C117.35 25.3813 117.485 24.9987 117.485 24.476C117.485 23.944 117.345 23.58 117.065 23.384C116.785 23.188 116.295 23.09 115.595 23.09H113.957V25.988H115.553ZM129.201 21.214V23.16H124.329V25.176H128.711V27.038H124.329V29.068H129.355V31H122.145V21.214H129.201ZM138.855 21.214C140.357 21.214 141.449 21.508 142.131 22.096C142.821 22.6747 143.167 23.5707 143.167 24.784C143.167 25.988 142.812 26.87 142.103 27.43C141.403 27.99 140.329 28.27 138.883 28.27H137.581V31H135.397V21.214H138.855ZM139.051 26.38C139.779 26.38 140.273 26.2353 140.535 25.946C140.796 25.6473 140.927 25.218 140.927 24.658C140.927 24.0887 140.754 23.6873 140.409 23.454C140.073 23.2113 139.545 23.09 138.827 23.09H137.581V26.38H139.051ZM153.009 24.462C153.009 26.03 152.389 27.0427 151.147 27.5L153.625 31H150.937L148.767 27.878H147.255V31H145.071V21.214H148.781C150.303 21.214 151.385 21.4707 152.029 21.984C152.683 22.4973 153.009 23.3233 153.009 24.462ZM148.851 25.988C149.598 25.988 150.107 25.8667 150.377 25.624C150.648 25.3813 150.783 24.9987 150.783 24.476C150.783 23.944 150.643 23.58 150.363 23.384C150.083 23.188 149.593 23.09 148.893 23.09H147.255V25.988H148.851ZM162.837 26.058C162.837 25.1807 162.557 24.434 161.997 23.818C161.437 23.202 160.747 22.894 159.925 22.894C159.113 22.894 158.427 23.202 157.867 23.818C157.307 24.434 157.027 25.1807 157.027 26.058C157.027 26.926 157.307 27.668 157.867 28.284C158.427 28.8907 159.113 29.194 159.925 29.194C160.747 29.194 161.437 28.8907 161.997 28.284C162.557 27.668 162.837 26.926 162.837 26.058ZM163.579 29.656C162.59 30.6173 161.372 31.098 159.925 31.098C158.479 31.098 157.261 30.6173 156.271 29.656C155.282 28.6853 154.787 27.4813 154.787 26.044C154.787 24.6067 155.282 23.4073 156.271 22.446C157.261 21.4753 158.479 20.99 159.925 20.99C161.372 20.99 162.59 21.4753 163.579 22.446C164.569 23.4073 165.063 24.6067 165.063 26.044C165.063 27.4813 164.569 28.6853 163.579 29.656ZM170.572 21.214C172.317 21.214 173.656 21.6433 174.59 22.502C175.523 23.3513 175.99 24.5367 175.99 26.058C175.99 27.5793 175.532 28.7833 174.618 29.67C173.712 30.5567 172.326 31 170.46 31H167.114V21.214H170.572ZM170.684 29.068C171.682 29.068 172.448 28.816 172.98 28.312C173.521 27.808 173.792 27.0753 173.792 26.114C173.792 25.1527 173.521 24.4153 172.98 23.902C172.448 23.3793 171.626 23.118 170.516 23.118H169.298V29.068H170.684ZM180.664 28.48C181.028 28.928 181.518 29.152 182.134 29.152C182.75 29.152 183.235 28.928 183.59 28.48C183.954 28.0227 184.136 27.402 184.136 26.618V21.214H186.32V26.688C186.32 28.1067 185.928 29.1987 185.144 29.964C184.36 30.72 183.356 31.098 182.134 31.098C180.911 31.098 179.903 30.7153 179.11 29.95C178.326 29.1847 177.934 28.0973 177.934 26.688V21.214H180.118V26.618C180.118 27.402 180.3 28.0227 180.664 28.48ZM193.281 29.068C194.355 29.068 195.232 28.6433 195.913 27.794L197.313 29.236C196.203 30.4867 194.891 31.112 193.379 31.112C191.877 31.112 190.635 30.636 189.655 29.684C188.685 28.732 188.199 27.5327 188.199 26.086C188.199 24.63 188.694 23.4167 189.683 22.446C190.682 21.4753 191.9 20.99 193.337 20.99C194.943 20.99 196.287 21.6013 197.369 22.824L196.011 24.364C195.321 23.5053 194.462 23.076 193.435 23.076C192.614 23.076 191.909 23.3467 191.321 23.888C190.743 24.42 190.453 25.1433 190.453 26.058C190.453 26.9633 190.729 27.6913 191.279 28.242C191.83 28.7927 192.497 29.068 193.281 29.068ZM203.385 23.104V31H201.201V23.104H198.429V21.214H206.157V23.104H203.385ZM211.027 22.908C210.663 22.908 210.373 22.9967 210.159 23.174C209.953 23.342 209.851 23.5707 209.851 23.86C209.851 24.14 209.977 24.364 210.229 24.532C210.49 24.7 211.083 24.9007 212.007 25.134C212.94 25.358 213.663 25.6987 214.177 26.156C214.69 26.6133 214.947 27.2807 214.947 28.158C214.947 29.0353 214.615 29.7493 213.953 30.3C213.299 30.8413 212.436 31.112 211.363 31.112C209.813 31.112 208.418 30.538 207.177 29.39L208.479 27.794C209.533 28.718 210.509 29.18 211.405 29.18C211.806 29.18 212.119 29.096 212.343 28.928C212.576 28.7507 212.693 28.5173 212.693 28.228C212.693 27.9293 212.571 27.696 212.329 27.528C212.086 27.3507 211.605 27.1733 210.887 26.996C209.748 26.7253 208.913 26.3753 208.381 25.946C207.858 25.5073 207.597 24.826 207.597 23.902C207.597 22.9687 207.928 22.25 208.591 21.746C209.263 21.242 210.098 20.99 211.097 20.99C211.75 20.99 212.403 21.102 213.057 21.326C213.71 21.55 214.279 21.8673 214.765 22.278L213.659 23.874C212.809 23.23 211.932 22.908 211.027 22.908Z" fill="#23A6F0"/>
</svg>
