<svg width="152" height="142" viewBox="0 0 152 142" fill="none" xmlns="http://www.w3.org/2000/svg">
<g clip-path="url(#clip0_2986_9658)">
<path d="M133.69 54.5545C128.995 54.5545 124.863 56.5153 121.827 59.583C110.652 51.7714 95.5953 46.7429 78.9111 46.2053L87.5819 6.73625L115.191 12.9982C115.191 19.8293 120.7 25.3955 127.461 25.3955C134.348 25.3955 139.888 19.6712 139.888 12.84C139.888 6.00885 134.379 0.284576 127.461 0.284576C122.641 0.284576 118.477 3.22578 116.411 7.24226L85.9228 0.41108C84.389 -5.61476e-05 82.8865 1.10685 82.4796 2.65651L72.9636 46.1737C56.4046 46.8694 41.5046 51.8979 30.2983 59.7095C27.2619 56.5153 22.9735 54.5545 18.2781 54.5545C0.873892 54.5545 -4.82317 78.1474 11.1098 86.212C10.5464 88.7104 10.2959 91.367 10.2959 94.0235C10.2959 120.526 39.8455 142 76.1252 142C112.561 142 142.111 120.526 142.111 94.0235C142.111 91.367 141.829 88.5839 141.14 86.0855C156.76 77.9892 151.001 54.5545 133.69 54.5545ZM36.3709 87.8881C36.3709 80.9304 41.8802 75.3327 48.7981 75.3327C55.5594 75.3327 61.0686 80.8988 61.0686 87.8881C61.0686 94.7193 55.5594 100.285 48.7981 100.285C41.9115 100.317 36.3709 94.7193 36.3709 87.8881ZM103.452 117.458C92.0581 128.97 59.9104 128.97 48.5163 117.458C47.2642 116.351 47.2642 114.391 48.5163 113.126C49.6119 112.019 51.5527 112.019 52.6483 113.126C61.3504 122.139 90.2113 122.297 99.289 113.126C100.385 112.019 102.325 112.019 103.421 113.126C104.704 114.391 104.704 116.351 103.452 117.458ZM103.202 100.317C96.4405 100.317 90.9312 94.7509 90.9312 87.9197C90.9312 80.9621 96.4405 75.3643 103.202 75.3643C110.088 75.3643 115.629 80.9304 115.629 87.9197C115.598 94.7193 110.088 100.317 103.202 100.317Z" fill="#737373"/>
</g>
<defs>
<clipPath id="clip0_2986_9658">
<rect width="149" height="142" fill="white" transform="translate(1.5)"/>
</clipPath>
</defs>
</svg>
