<svg width="154" height="50" viewBox="0 0 154 50" fill="none" xmlns="http://www.w3.org/2000/svg">
<g clip-path="url(#clip0_2986_9643)">
<path d="M36.142 46.9484L45.0587 47.1361C41.9856 46.0563 39.0056 44.7418 36.142 43.1925V46.9484ZM49.5752 45.7042V46.9484L45.0587 47.1361C53.5563 50.0704 61.3323 50.4695 67.106 48.8263C62.473 48.8732 56.4432 48.216 49.5752 45.7042ZM144.772 18.662C148.474 18.662 151.501 15.6338 151.501 11.8779C151.501 8.12206 148.497 6.12675 144.772 6.12675C141.071 6.12675 138.044 8.14553 138.044 11.8779C138.044 15.6103 141.047 18.662 144.772 18.662ZM138.021 46.9484H151.501V21.0094H138.021V46.9484ZM120.862 46.9484H134.342V1.10328L120.862 7.51173V46.9484ZM113.645 18.9202C109.408 14.6479 101.911 14.9061 101.911 14.9061C101.911 14.9061 94.3916 14.6479 90.1777 18.9202C85.9405 23.1925 86.2665 26.8779 86.2665 31.2676C86.2665 35.6573 85.9405 39.3192 90.1777 43.5915C94.4149 47.8638 101.911 47.6056 101.911 47.6056C101.911 47.6056 109.431 47.8638 113.645 43.5915C117.882 39.3192 117.556 35.6573 117.556 31.2676C117.533 26.8545 117.859 23.169 113.645 18.9202ZM104.379 35.7981C104.379 36.6432 103.96 38.7324 101.888 38.7324C99.8162 38.7324 99.3971 36.6432 99.3971 35.7981V26.3146C99.3971 24.2723 101.097 23.7559 101.888 23.7559C102.68 23.7559 104.379 24.2488 104.379 26.3146V35.7981ZM79.6546 18.9202C75.4174 14.6479 67.9209 14.9061 67.9209 14.9061C67.9209 14.9061 60.4243 14.6479 56.1871 18.9202C55.7448 19.3662 55.3257 19.8357 54.9532 20.3286C46.0598 13.3803 38.0743 9.41314 31.1831 5.98591V1.12675L25.9448 3.61501C13.2798 -1.57278 5.22446 -0.657287 3.29212 3.63849C3.29212 3.63849 -2.50491 11.338 17.6799 29.6479V46.9484H31.1598V40.2347C29.6465 39.2488 28.1332 38.1925 26.6432 37.0422C23.1976 34.4131 20.2641 31.9718 17.7032 29.6714V22.3944C20.7531 25.8451 24.804 29.7653 30.1354 34.2019L31.1831 35.0469V28.0516C31.1831 26.4319 31.5788 23.7793 33.6974 23.7793C35.816 23.7793 36.1652 25.3991 36.1652 27.3005V38.7324C40.3559 41.5962 44.8491 43.9202 49.5985 45.6807V23.6385C49.5985 19.2488 46.4788 14.8591 40.1463 14.8591C36.4679 14.8357 33.0456 16.784 31.1831 20V7.25351C40.9379 12.1596 50.716 18.169 54.441 20.939C52.0663 24.3662 52.2759 27.5352 52.2759 31.1972C52.2759 35.5868 51.9499 39.2488 56.1871 43.5211C60.4243 47.7934 67.9209 47.5352 67.9209 47.5352C67.9209 47.5352 75.4407 47.7934 79.6546 43.5211C83.8918 39.2488 83.5426 35.5868 83.5426 31.1972C83.5426 26.8545 83.8918 23.169 79.6546 18.9202ZM17.6799 7.51173V22.3709C6.34196 9.57746 8.62353 4.53051 9.48493 3.80281C12.6279 1.12675 18.2154 1.92487 24.4781 4.29577L17.6799 7.51173ZM70.412 35.7981C70.412 36.6432 69.9929 38.7324 67.9209 38.7324C65.8488 38.7324 65.4298 36.6432 65.4298 35.7981V26.3146C65.4298 24.2723 67.1293 23.7559 67.9209 23.7559C68.7124 23.7559 70.412 24.2488 70.412 26.3146V35.7981Z" fill="#737373"/>
</g>
<defs>
<clipPath id="clip0_2986_9643">
<rect width="149" height="50" fill="white" transform="translate(2.5)"/>
</clipPath>
</defs>
</svg>
