<svg width="152" height="109" viewBox="0 0 152 109" fill="none" xmlns="http://www.w3.org/2000/svg">
<g clip-path="url(#clip0_2986_9649)">
<path d="M150.5 0.211857C131.689 12.8304 129.687 21.9883 128.057 24.7898C126.497 27.662 125.333 38.9857 122.632 44.471C119.908 50.027 110.014 54.4058 107.243 56.2421C104.52 58.0784 100.655 65.2116 97.4886 71.3561C72.3216 70.3203 58.5158 80.4905 37.1436 93.3916C43.9883 91.108 47.2244 89.46 47.2244 89.46C69.1553 80.9849 79.6552 73.3807 112.668 77.8773C112.924 77.8773 113.11 78.0186 113.32 78.0656C114.228 78.5836 114.554 79.69 114.042 80.6082L101.493 103.162C100.911 104.268 99.677 104.857 98.4431 104.598C68.9225 98.9946 45.618 108.67 24.1992 108.976C7.11078 109.235 1.5 101.09 1.5 100.713C1.5 100.454 1.63969 100.313 1.89578 100.313C1.89578 100.313 10.8125 100.313 25.8988 96.711C43.0337 63.6814 58.3062 52.1222 74.9291 52.1222C74.9291 52.1222 91.6217 52.1222 96.0219 66.6948C101.33 57.3486 102.61 55.1121 102.61 55.1121C103.844 52.8991 110.759 36.9376 122.725 21.8235C134.715 6.75656 143.772 3.01337 150.5 0.211857Z" fill="#737373"/>
</g>
<defs>
<clipPath id="clip0_2986_9649">
<rect width="149" height="109" fill="white" transform="translate(1.5)"/>
</clipPath>
</defs>
</svg>
