<svg width="146" height="99" viewBox="0 0 146 99" fill="none" xmlns="http://www.w3.org/2000/svg">
<g clip-path="url(#clip0_2986_9646)">
<path d="M3.5 1.67001H24.6215V58.7454C24.6215 67.7976 28.6938 73.1852 32.0059 75.4277C28.558 78.4634 18.1059 81.1435 10.2328 74.662C5.61758 70.8333 3.5 64.4612 3.5 58.5266V1.67001ZM135.414 49.1189V43.1023H141.876V22.099H134.79C132.048 9.43686 120.89 0.029129 107.56 0.029129C92.1939 0.029129 79.6785 12.6092 79.6785 28.1156V77.1233C84.0223 77.7523 89.2891 77.0413 93.7143 73.2946C98.3566 69.4659 100.447 63.1211 100.447 57.1592V55.3269H110.981V34.3236H100.447V27.9515C100.447 18.4891 114.619 18.4891 114.619 27.9515V49.0369C114.619 64.5159 127.107 77.1233 142.5 77.1233V56.2021C138.563 56.2021 135.414 53.0023 135.414 49.1189ZM55.5164 22.0443V52.9476C55.5164 57.1592 49.0551 57.1592 49.0551 52.9476V22.0443H28.2051V58.3352C28.2051 64.844 30.377 73.1032 40.4219 75.8106C50.4668 78.4907 56.2223 72.9117 56.2223 72.9117C55.6521 76.5764 52.2857 79.2838 46.7475 79.8308C42.5395 80.2683 37.1912 78.8463 34.5307 77.6976V96.9233C41.3449 98.9744 48.5121 99.6034 55.5979 98.2087C68.3848 95.72 76.4479 84.9722 76.4479 70.6418V21.9076H55.5164V22.0443Z" fill="#737373"/>
</g>
<defs>
<clipPath id="clip0_2986_9646">
<rect width="139" height="99" fill="white" transform="translate(3.5)"/>
</clipPath>
</defs>
</svg>
