<svg width="46" height="46" viewBox="0 0 46 46" fill="none" xmlns="http://www.w3.org/2000/svg">
<g clip-path="url(#clip0_2984_8448)">
<g clip-path="url(#clip1_2984_8448)">
<path d="M26.7427 25.344C27.7109 24.0227 28.1446 22.3845 27.957 20.7571C27.7693 19.1298 26.9741 17.6333 25.7304 16.5671C24.4868 15.5009 22.8864 14.9436 21.2495 15.0067C19.6126 15.0697 18.0598 15.7485 16.9019 16.9073C15.744 18.066 15.0663 19.6193 15.0044 21.2562C14.9425 22.8932 15.501 24.4931 16.5681 25.736C17.6352 26.9789 19.1322 27.773 20.7597 27.9596C22.3871 28.1461 24.025 27.7112 25.3457 26.742H25.3447C25.3747 26.782 25.4067 26.82 25.4427 26.857L29.2927 30.707C29.4802 30.8946 29.7345 31.0001 29.9998 31.0002C30.2651 31.0003 30.5195 30.895 30.7072 30.7075C30.8948 30.52 31.0003 30.2656 31.0004 30.0003C31.0005 29.7351 30.8952 29.4806 30.7077 29.293L26.8577 25.443C26.8219 25.4068 26.7835 25.3734 26.7427 25.343V25.344ZM27.0007 21.5C27.0007 22.2222 26.8584 22.9374 26.582 23.6047C26.3056 24.272 25.9005 24.8783 25.3897 25.3891C24.879 25.8998 24.2727 26.3049 23.6054 26.5813C22.9381 26.8577 22.2229 27 21.5007 27C20.7784 27 20.0632 26.8577 19.3959 26.5813C18.7286 26.3049 18.1223 25.8998 17.6116 25.3891C17.1008 24.8783 16.6957 24.272 16.4193 23.6047C16.1429 22.9374 16.0007 22.2222 16.0007 21.5C16.0007 20.0413 16.5801 18.6423 17.6116 17.6109C18.643 16.5794 20.042 16 21.5007 16C22.9593 16 24.3583 16.5794 25.3897 17.6109C26.4212 18.6423 27.0007 20.0413 27.0007 21.5Z" fill="#23A6F0"/>
</g>
</g>
<defs>
<clipPath id="clip0_2984_8448">
<rect width="46.0006" height="46.0003" fill="white" transform="translate(-0.000244141 -0.00012207)"/>
</clipPath>
<clipPath id="clip1_2984_8448">
<rect width="16.0006" height="16.0003" fill="white" transform="translate(14.9998 14.9999)"/>
</clipPath>
</defs>
</svg>
