<svg width="22" height="23" viewBox="0 0 22 23" fill="none" xmlns="http://www.w3.org/2000/svg">
<g clip-path="url(#clip0_19449_550)">
<path d="M10.6071 11.2001C12.0137 11.2001 13.3627 10.6206 14.3573 9.58916C15.3519 8.55771 15.9107 7.15876 15.9107 5.70007C15.9107 4.24138 15.3519 2.84244 14.3573 1.81099C13.3627 0.779536 12.0137 0.200073 10.6071 0.200073C9.20055 0.200073 7.85156 0.779536 6.85695 1.81099C5.86234 2.84244 5.30357 4.24138 5.30357 5.70007C5.30357 7.15876 5.86234 8.55771 6.85695 9.58916C7.85156 10.6206 9.20055 11.2001 10.6071 11.2001ZM14.1429 5.70007C14.1429 6.67253 13.7703 7.60517 13.1073 8.2928C12.4442 8.98043 11.5449 9.36674 10.6071 9.36674C9.66941 9.36674 8.77009 8.98043 8.10701 8.2928C7.44394 7.60517 7.07143 6.67253 7.07143 5.70007C7.07143 4.72761 7.44394 3.79498 8.10701 3.10735C8.77009 2.41971 9.66941 2.03341 10.6071 2.03341C11.5449 2.03341 12.4442 2.41971 13.1073 3.10735C13.7703 3.79498 14.1429 4.72761 14.1429 5.70007ZM21.2143 20.3667C21.2143 22.2001 19.4464 22.2001 19.4464 22.2001H1.76786C1.76786 22.2001 0 22.2001 0 20.3667C0 18.5334 1.76786 13.0334 10.6071 13.0334C19.4464 13.0334 21.2143 18.5334 21.2143 20.3667ZM19.4464 20.3594C19.4447 19.9084 19.1742 18.5517 17.9756 17.3087C16.8229 16.1134 14.6538 14.8667 10.6071 14.8667C6.55875 14.8667 4.39136 16.1134 3.23871 17.3087C2.04011 18.5517 1.77139 19.9084 1.76786 20.3594H19.4464Z" fill="#3C403D"/>
</g>
<defs>
<clipPath id="clip0_19449_550">
<rect width="21.2143" height="22" fill="white" transform="translate(0 0.200073)"/>
</clipPath>
</defs>
</svg>
